<svg xmlns="http://www.w3.org/2000/svg" viewBox="0 0 512 512">
  <defs>
    <linearGradient id="silver" x1="0" y1="0" x2="0.85" y2="1">
      <stop offset="0" stop-color="#fff"/>
      <stop offset="0.55" stop-color="#f5f7f9"/>
      <stop offset="1" stop-color="#d7dce1"/>
    </linearGradient>
  </defs>
  <rect width="512" height="512" rx="100" fill="#080a0c"/>
  <g fill="url(#silver)">
    <path d="M158 120h8c12 0 20 8 20 20v218c0 18-15 33-33 33h-3c-11 0-20-9-20-20V148c0-16 12-28 28-28Z"/>
    <path d="M201 120h88c49 0 85 33 85 77s-36 78-85 78h-88c-4 0-6-3-6-7v-38c0-4 2-7 6-7h88c19 0 30-10 30-26s-11-25-30-25h-88c-4 0-6-3-6-7v-38c0-4 2-7 6-7Z"/>
    <circle cx="374" cy="346" r="45"/>
  </g>
</svg>
